<svg width="15" height="15" viewBox="0 0 15 15" fill="none" xmlns="http://www.w3.org/2000/svg">
<path d="M3.125 2.5V2V2.5ZM5.625 2.5L6.08924 2.3143C6.01331 2.12448 5.82945 2 5.625 2V2.5ZM6.875 5.625L7.13225 6.05375C7.34269 5.92748 7.43038 5.66716 7.33924 5.4393L6.875 5.625ZM5.3125 6.5625L5.05525 6.13375C4.83212 6.26763 4.74897 6.55028 4.86407 6.78366L5.3125 6.5625ZM8.4375 9.6875L8.21634 10.1359C8.44972 10.251 8.73237 10.1679 8.86625 9.94475L8.4375 9.6875ZM9.375 8.125L9.5607 7.66076C9.33284 7.56962 9.07252 7.65731 8.94625 7.86775L9.375 8.125ZM12.5 9.375H13C13 9.17055 12.8755 8.98669 12.6857 8.91076L12.5 9.375ZM11.25 13.125L11.2197 13.6241C11.2298 13.6247 11.2399 13.625 11.25 13.625V13.125ZM1.875 3.75H1.375C1.375 3.76012 1.37531 3.77023 1.37592 3.78033L1.875 3.75ZM9.375 3.875C9.09886 3.875 8.875 4.09886 8.875 4.375C8.875 4.65114 9.09886 4.875 9.375 4.875V3.875ZM10.125 5.625C10.125 5.90114 10.3489 6.125 10.625 6.125C10.9011 6.125 11.125 5.90114 11.125 5.625H10.125ZM9.375 1.375C9.09886 1.375 8.875 1.59886 8.875 1.875C8.875 2.15114 9.09886 2.375 9.375 2.375V1.375ZM12.625 5.625C12.625 5.90114 12.8489 6.125 13.125 6.125C13.4011 6.125 13.625 5.90114 13.625 5.625H12.625ZM3.125 3H5.625V2H3.125V3ZM5.16076 2.6857L6.41076 5.8107L7.33924 5.4393L6.08924 2.3143L5.16076 2.6857ZM6.61775 5.19625L5.05525 6.13375L5.56975 6.99125L7.13225 6.05375L6.61775 5.19625ZM4.86407 6.78366C5.5821 8.23957 6.76043 9.4179 8.21634 10.1359L8.65866 9.23907C7.40016 8.6184 6.3816 7.59984 5.76093 6.34134L4.86407 6.78366ZM8.86625 9.94475L9.80375 8.38225L8.94625 7.86775L8.00875 9.43025L8.86625 9.94475ZM9.1893 8.58924L12.3143 9.83924L12.6857 8.91076L9.5607 7.66076L9.1893 8.58924ZM12 9.375V11.875H13V9.375H12ZM12 11.875C12 12.0739 11.921 12.2647 11.7803 12.4053L12.4874 13.1124C12.8156 12.7842 13 12.3391 13 11.875H12ZM11.7803 12.4053C11.6397 12.546 11.4489 12.625 11.25 12.625V13.625C11.7141 13.625 12.1592 13.4406 12.4874 13.1124L11.7803 12.4053ZM11.2803 12.6259C8.96427 12.4852 6.7798 11.5017 5.13907 9.86093L4.43196 10.568C6.2454 12.3815 8.65981 13.4685 11.2197 13.6241L11.2803 12.6259ZM5.13907 9.86093C3.49835 8.2202 2.51483 6.03573 2.37408 3.71967L1.37592 3.78033C1.53148 6.34019 2.61853 8.7546 4.43196 10.568L5.13907 9.86093ZM2.375 3.75C2.375 3.55109 2.45402 3.36032 2.59467 3.21967L1.88756 2.51256C1.55937 2.84075 1.375 3.28587 1.375 3.75H2.375ZM2.59467 3.21967C2.73532 3.07902 2.92609 3 3.125 3V2C2.66087 2 2.21575 2.18437 1.88756 2.51256L2.59467 3.21967ZM9.375 4.875C9.57391 4.875 9.76468 4.95402 9.90533 5.09467L10.6124 4.38756C10.2842 4.05937 9.83913 3.875 9.375 3.875V4.875ZM9.90533 5.09467C10.046 5.23532 10.125 5.42609 10.125 5.625H11.125C11.125 5.16087 10.9406 4.71575 10.6124 4.38756L9.90533 5.09467ZM9.375 2.375C10.237 2.375 11.0636 2.71741 11.6731 3.3269L12.3802 2.6198C11.5832 1.82277 10.5022 1.375 9.375 1.375V2.375ZM11.6731 3.3269C12.2826 3.9364 12.625 4.76305 12.625 5.625H13.625C13.625 4.49783 13.1772 3.41683 12.3802 2.6198L11.6731 3.3269Z" fill="black"/>
</svg>
